<svg xmlns="http://www.w3.org/2000/svg" viewBox="0 0 320 240" role="img" aria-labelledby="title desc">
  <title id="title">Lensa kontak harian</title>
  <desc id="desc">Ilustrasi blister lensa kontak dan tetes cairan steril.</desc>
  <defs>
    <linearGradient id="bg" x1="0" x2="1" y1="0" y2="1"><stop offset="0" stop-color="#fffaf0"/><stop offset="1" stop-color="#FFE7AB"/></linearGradient>
    <linearGradient id="lens" x1="0" x2="1"><stop offset="0" stop-color="#FFE7AB"/><stop offset="1" stop-color="#231F20"/></linearGradient>
  </defs>
  <rect width="320" height="240" rx="32" fill="url(#bg)"/>
  <rect x="56" y="66" width="208" height="116" rx="34" fill="#fff" opacity=".92"/>
  <circle cx="118" cy="124" r="38" fill="#FFF8E8" stroke="#B19731" stroke-width="6"/>
  <circle cx="202" cy="124" r="38" fill="#FFF8E8" stroke="#B19731" stroke-width="6"/>
  <path d="M118 92c21 22 21 43 0 65-21-22-21-43 0-65Zm84 0c21 22 21 43 0 65-21-22-21-43 0-65Z" fill="url(#lens)" opacity=".55"/>
  <path d="M255 47c16 21 24 36 24 47 0 13-10 24-24 24s-24-11-24-24c0-11 8-26 24-47Z" fill="#D7BD64" opacity=".72"/>
</svg>
