<svg width="600" height="178" viewBox="0 0 600 178" fill="none" xmlns="http://www.w3.org/2000/svg" role="img" aria-labelledby="title desc">
  <title id="title">PRIME</title>
  <desc id="desc">Logo utama PRIME berwarna gold tanpa tagline kecil.</desc>
  <g fill="#B19731">
    <path d="M28 58h58c31 0 50 16 50 43s-19 43-50 43H50v26H28V58Zm56 66c19 0 30-8 30-23s-11-23-30-23H50v46h34Z"/>
    <path d="M154 58h61c31 0 50 16 50 43 0 18-9 31-25 38l31 31h-29l-28-28h-38v28h-22V58Zm59 64c19 0 30-7 30-21 0-15-11-23-30-23h-37v44h37Z"/>
    <path d="M289 58h22v112h-22V58Z"/>
    <path d="M338 58h24l43 75 43-75h24v112h-22V98l-38 66h-14l-38-66v72h-22V58Z"/>
    <path d="M499 58h88v20h-66v25h63v20h-63v27h68v20h-90V58Z"/>
  </g>
  <g fill="#B19731" transform="translate(500 10)">
    <path d="M45 13c13 0 25 7 31 18 14-2 27 1 38 9-3 13-10 24-20 31 3 13 1 27-6 39-13-1-25-7-34-17-12 6-26 8-39 4-1-14 3-27 11-37-8-11-12-24-10-38 9-6 19-9 29-9Z"/>
    <path d="M8 44 35 34c-2 10-1 20 4 29L15 75 8 44Z"/>
    <path d="M27 84 51 73c7 9 16 15 27 18l-3 26c-20-3-37-15-48-33Z"/>
    <path d="M73 6c18 7 32 21 39 39l-28 1c-5-12-14-21-25-26L73 6Z"/>
    <path d="M92 71 119 68c1 18-5 36-17 49l-14-22c5-7 6-15 4-24Z"/>
  </g>
</svg>
